Coordinates
version=1
nRows=16
nColumns=28
inDegrees=yes

Units are S.I. units (second, meters, Newtons, ...)
Angles are in degrees.

endheader
time	pelvis_tilt	pelvis_list	pelvis_rotation	pelvis_tx	pelvis_ty	pelvis_tz	hip_flexion_r	hip_adduction_r	hip_rotation_r	knee_angle_r	ankle_angle_r	subtalar_angle_r	mtp_angle_r	hip_flexion_l	hip_adduction_l	hip_rotation_l	knee_angle_l	socket_flexion	socket_adduction	socket_rotation	socket_tx	socket_ty	socket_tz	foot_flex	lumbar_extension	lumbar_bending	lumbar_rotation
      0.80000000	     -3.14001137	     -6.71343720	      6.14544396	      0.36550217	      0.97949764	      0.25116275	     12.41764018	     12.52654523	      5.89971646	    -22.74260518	      1.87222925	    -24.58626018	      0.85244312	     25.60457230	    -10.17968294	     -7.88077840	    -61.53727323	      8.69469036	    -11.45915590	     -8.93843688	      0.01284042	      0.01312718	      0.00427346	     -1.20023086	     -6.50533920	      5.71843912	    -10.69072776
      0.80416667	     -3.19073644	     -6.53871042	      6.16064464	      0.37100183	      0.98066599	      0.25069329	     11.81238556	     12.31907470	      5.98451900	    -22.24552577	      1.78739944	    -24.53309109	      0.87428451	     26.51525304	     -9.83778079	     -7.74228809	    -61.61419636	      8.60252837	    -11.45915590	     -8.08108421	      0.01298513	      0.01381955	      0.00392834	     -1.22098781	     -6.48327466	      5.54594503	    -10.46912879
      0.80833333	     -3.23932306	     -6.34352303	      6.13789746	      0.37640582	      0.98179696	      0.25024259	     11.24010170	     12.09246447	      6.09471915	    -21.81511606	      1.71336750	    -24.48635368	      0.89236397	     27.35887799	     -9.49415876	     -7.58885289	    -61.62084881	      8.47543835	    -11.36432320	     -7.33398672	      0.01303073	      0.01429242	      0.00339802	     -1.24185331	     -6.48913719	      5.38053959	    -10.29126359
      0.81250000	     -3.29085878	     -6.15371646	      6.11613041	      0.38185726	      0.98296005	      0.24974853	     10.65513186	     11.86664337	      6.20296751	    -21.35304963	      1.63116008	    -24.44152854	      0.90864677	     28.18489115	     -9.14719837	     -7.40711296	    -61.58143734	      8.31707886	    -11.28337689	     -6.67214788	      0.01308919	      0.01483207	      0.00274376	     -1.26374332	     -6.47035867	      5.22119756	    -10.10071154
      0.81666667	     -3.34637949	     -5.97558188	      6.10362885	      0.38738876	      0.98405266	      0.24927055	     10.06552535	     11.65411405	      6.30521560	    -20.87933051	      1.53013322	    -24.40016253	      0.92238099	     28.99324530	     -8.79171248	     -7.21683575	    -61.49474946	      8.12862766	    -11.20535572	     -6.09953564	      0.01311814	      0.01541406	      0.00231020	     -1.28664376	     -6.43846926	      5.07107073	     -9.90113289
      0.82083333	     -3.43746581	     -5.87983081	      6.19308269	      0.39309268	      0.98514730	      0.24832611	      9.41823324	     11.47430214	      6.32408925	    -20.18565679	      1.23167288	    -24.42561222	      0.93075873	     29.83954741	     -8.32912721	     -7.03458764	    -61.34119697	      7.88198898	    -11.34399667	     -5.67512547	      0.01300901	      0.01612789	      0.00289090	     -1.29380372	     -6.29277374	      5.05167347	     -9.55856834
      0.82500000	     -3.45425448	     -5.67893399	      6.11100166	      0.39840534	      0.98620344	      0.24812409	      8.87889737	     11.27089317	      6.43717750	    -19.86482603	      1.12627068	    -24.43071937	      0.94655639	     30.59218192	     -8.02008974	     -6.84440755	    -61.19685133	      7.66378555	    -11.21074767	     -5.23024012	      0.01317622	      0.01689145	      0.00221331	     -1.31694089	     -6.34032814	      4.84017553	     -9.44063219
      0.82916667	     -3.51788018	     -5.49388653	      6.08779474	      0.40393205	      0.98725682	      0.24765785	      8.30121565	     11.05394072	      6.56382288	    -19.38992194	      1.01619090	    -24.42334910	      0.96070555	     31.32858276	     -7.65490805	     -6.63757170	    -60.96697691	      7.38356839	    -11.10776241	     -4.90754175	      0.01316306	      0.01752676	      0.00177250	     -1.33914705	     -6.28303017	      4.68952651	     -9.26687303
      0.83333333	     -3.58760132	     -5.32586216	      6.07931799	      0.40949285	      0.98828325	      0.24709558	      7.71399273	     10.84591338	      6.68510917	    -18.87520104	      0.85660116	    -24.41992817	      0.96927364	     32.04061587	     -7.24058494	     -6.40400550	    -60.67886581	      7.06780690	    -11.03764361	     -4.71128047	      0.01307370	      0.01816378	      0.00170459	     -1.35528755	     -6.20538280	      4.55654601	     -9.06424590
      0.83750000	     -3.67492209	     -5.16574534	      6.09371070	      0.41508735	      0.98922838	      0.24641688	      7.13020037	     10.63409472	      6.78752195	    -18.31864159	      0.60781001	    -24.45748630	      0.97122193	     32.69793749	     -6.75684008	     -6.11911260	    -60.31201086	      6.70067358	    -10.99849493	     -4.65685932	      0.01282385	      0.01851143	      0.00190854	     -1.35584540	     -6.12450917	      4.42919510	     -8.83403795
      0.84166667	     -3.71556757	     -4.98983822	      6.05168630	      0.42061232	      0.99021415	      0.24594354	      6.55946966	     10.41973993	      6.86688518	    -17.89204288	      0.43542456	    -24.49742056	      0.97464508	     33.35522974	     -6.38533121	     -5.89819138	    -59.95048355	      6.34911245	    -10.86846668	     -4.63703520	      0.01290517	      0.01936254	      0.00173789	     -1.36898609	     -6.07386037	      4.29853063	     -8.67293224
      0.84583333	     -3.80430330	     -4.82924161	      6.04544321	      0.42622476	      0.99111277	      0.24523224	      5.98633195	     10.20469357	      6.99067081	    -17.36040123	      0.22190098	    -24.54530578	      0.97686574	     33.94794784	     -5.89103416	     -5.59654545	    -59.49560373	      5.92286783	    -10.78002808	     -4.70868626	      0.01262651	      0.01973535	      0.00211757	     -1.36821063	     -5.97181548	      4.19607006	     -8.47655255
      0.85000000	     -3.75872345	     -4.53135446	      6.10214721	      0.43178282	      0.99232391	      0.24428239	      5.27839070	      9.82696517	      6.95883231	    -16.82749461	     -0.61101070	    -25.12140373	      0.97429213	     34.10099239	     -5.12393283	     -4.81918049	    -58.79486260	      5.41482591	    -10.29624978	     -5.40427527	      0.01122661	      0.01875280	      0.00204934	     -1.29379690	     -6.07963356	      3.94643908	     -8.26587111
      0.85416667	     -3.81792047	     -4.42060998	      6.02952276	      0.43731646	      0.99308012	      0.24402669	      4.73313209	      9.71071225	      7.13574175	    -16.40129116	     -0.54694597	    -25.14574429	      1.02355505	     34.70979326	     -4.89845223	     -4.57367930	    -58.34522341	      4.97117240	    -10.13824687	     -5.34716532	      0.01155246	      0.01949704	      0.00162119	     -1.35362839	     -6.02003030	      3.85261869	     -8.19219962
      0.85833333	     -3.93306024	     -4.33075218	      6.00914044	      0.44300448	      0.99377399	      0.24336696	      4.18309519	      9.58445823	      7.31831936	    -15.85276748	     -0.67084447	    -25.15368950	      1.04766108	     35.22867409	     -4.48238604	     -4.28058110	    -57.75630620	      4.44428242	    -10.05644861	     -5.60863578	      0.01123889	      0.01969466	      0.00223355	     -1.32557457	     -5.87915982	      3.81011836	     -8.04445867
      0.86250000	     -3.88808791	     -4.28821717	      5.84840245	      0.44809378	      0.99433594	      0.24337246	      3.84468067	      9.57346848	      7.29780380	    -15.98290982	     -0.68647451	    -25.15417956	      1.04787667	     35.75184200	     -4.42080587	     -4.19407208	    -57.28737451	      3.96706716	    -10.02396421	     -5.54815813	      0.01183773	      0.02044854	      0.00193698	     -1.24649357	     -5.98225529	      3.80832545	     -8.04075323
